<svg width="48" height="48" viewBox="0 0 48 48" fill="none" xmlns="http://www.w3.org/2000/svg">
<path d="M39 48H9C4.029 48 0 43.971 0 39V9C0 4.029 4.029 0 9 0H39C43.971 0 48 4.029 48 9V39C48 43.971 43.971 48 39 48Z" fill="#FBF6EA"/>
<path d="M18.1156 26.4253H15.5317C14.5999 26.4253 13.8418 27.2179 13.8418 28.192V33.915C13.8418 34.5133 14.3074 35 14.8796 35H18.7676C19.3398 35 19.8054 34.5133 19.8054 33.915V28.1921C19.8054 27.2179 19.0474 26.4253 18.1156 26.4253Z" fill="#232536"/>
<path d="M25.6995 22.9491H23.1157C22.1839 22.9491 21.4258 23.7417 21.4258 24.7158V33.9147C21.4258 34.513 21.8913 34.9997 22.4636 34.9997H26.3516C26.9239 34.9997 27.3894 34.513 27.3894 33.9147V24.7158C27.3894 23.7416 26.6313 22.9491 25.6995 22.9491Z" fill="#232536"/>
<path d="M33.4261 18.9888H30.8423C29.9104 18.9888 29.1523 19.7813 29.1523 20.7554V33.9148C29.1523 34.5131 29.6179 34.9998 30.1901 34.9998H34.0781C34.6504 34.9998 35.1159 34.5131 35.1159 33.9148V20.7554C35.116 19.7813 34.3579 18.9888 33.4261 18.9888Z" fill="#232536"/>
<path d="M31.3679 11.6682C31.0518 11.2011 30.5378 10.9542 29.9927 11.0065L25.1126 11.4785C24.5676 11.5312 24.1057 11.873 23.8769 12.3927C23.6481 12.9124 23.7002 13.5015 24.0163 13.9686L24.2887 14.3711L18.2316 18.7468L18.2254 18.7514C17.7956 19.0693 17.51 19.5433 17.4211 20.0858C17.3323 20.6284 17.4509 21.1747 17.755 21.624C18.0591 22.0733 18.5125 22.3719 19.0315 22.4648C19.1439 22.485 19.2565 22.4949 19.3683 22.4949C19.7711 22.4949 20.1635 22.3658 20.4994 22.1184L26.5662 17.7358L26.8475 18.1511C27.1355 18.5767 27.5878 18.8198 28.0782 18.8198C28.1259 18.8198 28.1741 18.8175 28.2226 18.8129C28.7676 18.7601 29.2295 18.4184 29.4583 17.8986L31.5074 13.2441C31.7362 12.7243 31.6841 12.1352 31.3679 11.6682Z" fill="#FFD050"/>
</svg>
